#!OML:ASF Y:\EmotionMaleHayes\Project 1\Capture day 1\Session 1\Male1.ASF
:FULLY-SPECIFIED
:DEGREES
1708
root 45.8339 17.0622 -16.6598 1076.36 240.02 1078.42
lowerback 6.68266 0.708769 -3.18132
upperback 2.09643 0.681783 0.554741
thorax -1.62782 0.312642 2.30472
lowerneck -20.0165 7.91294 10.7135
upperneck 24.0184 9.80897 -8.35572
head 12.2267 4.23094 -3.28933
rclavicle -1.26787e-014 -1.20265e-014
rhumerus -37.8936 -1.7996 -73.3629
rradius 31.1227
rwrist 4.80706
rhand -10.4993 -33.2299
rfingers 7.12502
rthumb 15.5028 -62.6284
lclavicle -1.26787e-014 -1.20265e-014
lhumerus -31.2836 -18.0564 92.5995
lradius 29.927
lwrist -4.37619
lhand -6.43548 -21.5923
lfingers 7.12502
lthumb 19.4137 7.4586
rfemur 3.76144 4.88143 13.3208
rtibia 13.3389
rfoot -15.6951 9.85234
rtoes 6.29996
lfemur 8.40575 -12.4667 -20.0695
ltibia 34.0922
lfoot 2.18663 -18.9942
ltoes 27.011
1709
root 45.8118 17.0575 -16.7196 1075.59 240.952 1079.34
lowerback 6.96201 0.779124 -2.55066
upperback 1.9895 0.813109 0.654693
thorax -1.89502 0.383748 2.0392
lowerneck -20.1237 7.84682 10.661
upperneck 24.1744 9.72306 -8.32593
head 12.2943 4.18738 -3.2854
rclavicle -2.25621e-014 3.97569e-015
rhumerus -37.7823 -1.01996 -73.1518
rradius 31.6497
rwrist 4.0352
rhand -10.5651 -33.5729
rfingers 7.12502
rthumb 15.4394 -62.9763
lclavicle -2.25621e-014 3.97569e-015
lhumerus -32.1195 -18.655 92.5242
lradius 29.94
lwrist -5.77096
lhand -8.76854 -21.0043
lfingers 7.12502
lthumb 17.1692 8.25713
rfemur 4.24806 3.97516 13.755
rtibia 13.1026
rfoot -15.7942 9.99258
rtoes 6.2194
lfemur 7.18936 -12.1609 -19.0108
ltibia 36.008
lfoot 3.75608 -18.5904
ltoes 26.9491
1710
root 45.797 17.0568 -16.7889 1074.87 241.886 1080.13
lowerback 7.12197 0.839717 -2.08458
upperback 2.02501 0.922572 0.720551
thorax -1.94737 0.436816 1.83407
lowerneck -20.0803 7.57988 10.204
upperneck 24.1691 9.42026 -8.06602
head 12.2065 4.04521 -3.16822
rclavicle -4.47762e-014 3.77691e-015
rhumerus -37.4023 -0.442371 -72.9179
rradius 32.0244
rwrist 3.3431
rhand -10.5903 -33.8192
rfingers 7.12502
rthumb 15.4151 -63.2244
lclavicle -4.47762e-014 3.77691e-015
lhumerus -32.7509 -19.027 92.3434
lradius 29.1107
lwrist -9.9503
lhand -15.7066 -22.0327
lfingers 7.12502
lthumb 10.4832 7.68595
rfemur 4.84598 3.578 14.3454
rtibia 12.7561
rfoot -16.0954 9.50637
rtoes 5.51008
lfemur 5.93719 -11.765 -17.9528
ltibia 38.1071
lfoot 5.20357 -18.4946
ltoes 26.4943
1711
root 45.7833 17.049 -16.8548 1074.01 242.845 1081.09
lowerback 7.14417 0.906178 -1.556
upperback 2.17675 1.04452 0.773321
thorax -1.80098 0.491863 1.58143
lowerneck -20.3201 7.38729 10.1154
upperneck 24.2715 9.17566 -8.12103
head 12.2652 3.91508 -3.21619
rclavicle 1.47147e-014 9.44227e-015
rhumerus -36.7732 -0.415772 -72.5566
rradius 32.2188
rwrist 3.00014
rhand -10.4958 -33.6006
rfingers 7.12502
rthumb 15.5061 -62.9988
lclavicle 1.47147e-014 9.44227e-015
lhumerus -32.3725 -18.4731 91.3871
lradius 29.3842
lwrist -8.35374
lhand -13.2865 -20.7943
lfingers 7.12502
lthumb 12.817 8.79221
rfemur 5.37911 3.1649 14.9959
rtibia 12.4156
rfoot -16.2878 8.98537
rtoes 5.57153
lfemur 4.61412 -11.3994 -16.9085
ltibia 40.3303
lfoot 6.33881 -18.4939
ltoes 25.9602
1712
root 45.7602 17.0392 -16.9157 1072.75 243.655 1082.32
lowerback 6.89636 0.998939 -0.914847
upperback 2.61723 1.20086 0.875464
thorax -1.20537 0.557194 1.32067
lowerneck -20.572 7.23831 10.0066
upperneck 23.9324 8.96857 -8.11449
head 12.1526 3.81833 -3.2213
rclavicle 2.33634e-014 1.09332e-015
rhumerus -35.6669 -0.819093 -72.146
rradius 32.2352
rwrist 3.09335
rhand -10.5236 -33.5743
rfingers 7.12502
rthumb 15.4794 -62.9746
lclavicle 2.33634e-014 1.09332e-015
lhumerus -31.839 -18.1602 90.5261
lradius 29.3697
lwrist -8.33107
lhand -12.5137 -20.2668
lfingers 7.12502
lthumb 13.562 9.27155
rfemur 6.00212 2.49667 15.6244
rtibia 12.0614
rfoot -16.1819 8.84073
rtoes 5.17986
lfemur 3.6783 -11.1629 -16.0116
ltibia 42.2174
lfoot 6.75396 -18.2129
ltoes 24.2821
